<svg width="181" height="88" viewBox="0 0 181 88" fill="none" xmlns="http://www.w3.org/2000/svg">
<path fill-rule="evenodd" clip-rule="evenodd" d="M128.493 41.8515C128.021 41.4296 127.409 41.1984 126.776 41.2032C125.739 41.2032 124.961 41.9215 124.961 42.8784C124.961 43.6849 125.329 44.0972 126.4 44.4836C126.669 44.5705 126.929 44.6816 127.178 44.8155C127.283 44.8782 127.37 44.9671 127.43 45.0735C127.49 45.1799 127.521 45.3002 127.52 45.4223C127.52 45.5355 127.496 45.6473 127.45 45.7509C127.405 45.8545 127.339 45.9478 127.256 46.0249C127.173 46.1021 127.075 46.1616 126.969 46.1998C126.862 46.238 126.749 46.254 126.636 46.247C126.375 46.2512 126.119 46.1801 125.898 46.0421C125.676 45.904 125.5 45.7051 125.389 45.469L124.652 46.1795C124.86 46.5286 125.158 46.8158 125.514 47.0114C125.87 47.207 126.272 47.3039 126.678 47.292C127.863 47.292 128.695 46.5141 128.695 45.3705C128.695 44.4421 128.309 44.022 127.012 43.5552C126.328 43.2959 126.125 43.1351 126.125 42.8188C126.125 42.4505 126.486 42.1705 126.976 42.1705C127.155 42.1742 127.332 42.2186 127.492 42.3004C127.652 42.3821 127.791 42.4991 127.899 42.6424L128.493 41.8515Z" fill="#003DA6"/>
<path fill-rule="evenodd" clip-rule="evenodd" d="M133.508 45.9129L134.009 47.1499H135.227L132.772 41.1855H131.913L129.377 47.1499H130.588L131.107 45.9129H133.508ZM133.148 44.9924H131.475L132.326 42.8867L133.148 44.9924Z" fill="#003DA6"/>
<path fill-rule="evenodd" clip-rule="evenodd" d="M136.314 47.1495H137.452V43.1949L141.013 47.2636H141.804V41.2992H140.663V45.2383L137.102 41.167H136.314V47.1495Z" fill="#003DA6"/>
<path fill-rule="evenodd" clip-rule="evenodd" d="M12.3125 41.5277C11.8827 41.2913 11.4001 41.1673 10.9096 41.1672C10.5037 41.1624 10.101 41.238 9.72448 41.3896C9.34798 41.5412 9.00522 41.7658 8.71595 42.0505C8.42667 42.3352 8.19661 42.6743 8.03902 43.0484C7.88143 43.4224 7.79943 43.8239 7.79775 44.2298C7.79453 44.635 7.87267 45.0368 8.02753 45.4112C8.18238 45.7857 8.41081 46.1253 8.69929 46.4099C8.98777 46.6945 9.33043 46.9184 9.70697 47.0682C10.0835 47.218 10.4863 47.2907 10.8914 47.282C11.3856 47.2796 11.8722 47.1614 12.3125 46.9371V45.5938C12.1429 45.7937 11.9319 45.9544 11.6942 46.065C11.4565 46.1755 11.1977 46.2333 10.9355 46.2343C9.78673 46.2343 8.96987 45.4019 8.96987 44.2168C8.96193 43.9584 9.00559 43.701 9.09831 43.4596C9.19102 43.2182 9.33093 42.9978 9.50985 42.8112C9.68877 42.6245 9.90311 42.4754 10.1403 42.3726C10.3776 42.2697 10.6329 42.2152 10.8914 42.2123C11.1629 42.2137 11.431 42.2729 11.6779 42.386C11.9247 42.4992 12.1446 42.6636 12.3229 42.8683L12.3125 41.5277Z" fill="#003DA6"/>
<path fill-rule="evenodd" clip-rule="evenodd" d="M17.4055 45.9129L17.893 47.1499H19.1118L16.6587 41.1855H15.8185L13.2849 47.1499H14.4933L15.012 45.9129H17.4055ZM17.045 44.9924H15.3776L16.2282 42.8867L17.045 44.9924Z" fill="#003DA6"/>
<path fill-rule="evenodd" clip-rule="evenodd" d="M19.8925 47.1499H21.0412L21.6299 43.5454L23.1806 47.2277H23.497L25.1022 43.5454L25.6286 47.1499H26.7774L25.8049 41.1934H25.014L23.357 45.0183L21.7622 41.1934H20.9816L19.8925 47.1499Z" fill="#003DA6"/>
<path fill-rule="evenodd" clip-rule="evenodd" d="M31.6784 45.9129L32.1763 47.1499H33.3951L30.9394 41.1855H30.081L27.5475 47.1499H28.7559L29.2746 45.9129H31.6784ZM31.318 44.9924H29.6506L30.5011 42.8867L31.318 44.9924Z" fill="#003DA6"/>
<path fill-rule="evenodd" clip-rule="evenodd" d="M36.9115 44.6855C37.303 44.63 37.6586 44.4276 37.9062 44.1193C38.1538 43.8111 38.2747 43.4201 38.2445 43.0259C38.2445 41.9316 37.4898 41.2988 36.1699 41.2988H34.4895V47.1491H35.6305V44.7971H35.7783L37.3576 47.1491H38.7605L36.9115 44.6855ZM35.6149 43.9906V42.2194H35.965C36.6756 42.2194 37.062 42.5176 37.062 43.0881C37.062 43.6586 36.6756 43.9906 35.9469 43.9906H35.6149Z" fill="#003DA6"/>
<path fill-rule="evenodd" clip-rule="evenodd" d="M43.3816 45.9129L43.8821 47.1499H45.1009L42.6451 41.1855H41.7842L39.2506 47.1499H40.4539L40.9725 45.9129H43.3816ZM43.0211 44.9924H41.3537L42.2069 42.8867L43.0211 44.9924Z" fill="#003DA6"/>
<path fill-rule="evenodd" clip-rule="evenodd" d="M48.6277 47.1491H50.2925C51.0488 47.1949 51.7945 46.9532 52.38 46.4723C52.711 46.1993 52.9779 45.8569 53.1616 45.4692C53.3454 45.0815 53.4415 44.6582 53.4433 44.2291C53.4433 42.4995 52.1467 41.2988 50.3029 41.2988H48.6277V47.1491ZM49.7661 46.1585V42.2894H50.0747C50.8112 42.2894 51.2572 42.4217 51.6306 42.764C51.8309 42.9494 51.9904 43.1746 52.0989 43.425C52.2073 43.6755 52.2625 43.9458 52.2608 44.2188C52.2628 44.4944 52.2079 44.7676 52.0994 45.021C51.991 45.2745 51.8314 45.5028 51.6306 45.6917C51.2702 46.0184 50.806 46.1585 50.0747 46.1585H49.7661Z" fill="#003DA6"/>
<path fill-rule="evenodd" clip-rule="evenodd" d="M58.1239 42.2894V41.2988H54.8876V47.1491H58.1239V46.1585H56.0286V44.5792H58.0435V43.5886H56.0286V42.2894H58.1239Z" fill="#003DA6"/>
<path fill-rule="evenodd" clip-rule="evenodd" d="M66.2821 41.5277C65.8525 41.2907 65.3698 41.1667 64.8792 41.1672C64.4734 41.1624 64.0706 41.238 63.6941 41.3896C63.3176 41.5412 62.9748 41.7658 62.6856 42.0505C62.3963 42.3352 62.1662 42.6743 62.0086 43.0484C61.8511 43.4224 61.7691 43.8239 61.7674 44.2298C61.7642 44.6343 61.8421 45.0354 61.9965 45.4094C62.1508 45.7834 62.3786 46.1226 62.6662 46.4071C62.9538 46.6916 63.2956 46.9156 63.6712 47.0659C64.0468 47.2161 64.4488 47.2896 64.8533 47.282C65.3501 47.2815 65.8398 47.1633 66.2821 46.9371V45.5938C66.1125 45.7937 65.9015 45.9544 65.6638 46.065C65.4261 46.1755 65.1673 46.2333 64.9051 46.2343C63.7564 46.2343 62.9421 45.4019 62.9421 44.2168C62.9338 43.959 62.9769 43.7022 63.0688 43.4612C63.1607 43.2202 63.2996 42.9999 63.4775 42.8131C63.6553 42.6263 63.8686 42.4768 64.1048 42.3732C64.341 42.2696 64.5954 42.214 64.8533 42.2097C65.1245 42.2108 65.3923 42.2699 65.6387 42.3831C65.8852 42.4962 66.1046 42.6608 66.2821 42.8658V41.5277Z" fill="#003DA6"/>
<path fill-rule="evenodd" clip-rule="evenodd" d="M70.579 41.1666C70.1706 41.1584 69.7647 41.2317 69.3849 41.3823C69.0052 41.5328 68.6594 41.7577 68.3676 42.0436C68.0759 42.3296 67.8441 42.6708 67.686 43.0475C67.5278 43.4241 67.4464 43.8285 67.4464 44.237C67.4351 44.8576 67.6087 45.4676 67.9452 45.9892C68.2817 46.5108 68.7657 46.9205 69.3358 47.1662C69.9059 47.4118 70.5361 47.4822 71.1463 47.3685C71.7566 47.2548 72.3191 46.962 72.7624 46.5275C73.2057 46.093 73.5097 45.5364 73.6357 44.9286C73.7616 44.3208 73.7038 43.6893 73.4697 43.1144C73.2356 42.5395 72.8357 42.0473 72.3209 41.7005C71.8061 41.3536 71.1998 41.1678 70.579 41.1666ZM70.579 42.2039C70.9794 42.1931 71.3739 42.302 71.712 42.5166C72.0501 42.7313 72.3165 43.042 72.4771 43.4089C72.6376 43.7758 72.685 44.1823 72.6132 44.5763C72.5414 44.9703 72.3536 45.3339 72.074 45.6206C71.7943 45.9073 71.4355 46.1041 71.0433 46.1856C70.6512 46.2672 70.2437 46.2299 69.8729 46.0786C69.5021 45.9272 69.1849 45.6686 68.9619 45.3359C68.7389 45.0032 68.6203 44.6116 68.6212 44.2111C68.6181 43.9511 68.6663 43.6931 68.7631 43.4519C68.8599 43.2106 69.0033 42.9908 69.1852 42.8051C69.3671 42.6194 69.5838 42.4714 69.823 42.3695C70.0622 42.2677 70.3191 42.2141 70.579 42.2117V42.2039Z" fill="#003DA6"/>
<path fill-rule="evenodd" clip-rule="evenodd" d="M74.8293 47.1499H75.9781L76.5642 43.5454L78.1175 47.2277H78.4339L80.0391 43.5454L80.5655 47.1499H81.7143L80.7392 41.1934H79.9509L78.2939 45.0183L76.6965 41.1934H75.9159L74.8293 47.1499Z" fill="#003DA6"/>
<path fill-rule="evenodd" clip-rule="evenodd" d="M86.3846 42.2894V41.2988H83.1483V47.1491H86.3846V46.1585H84.2893V44.5792H86.3068V43.5886H84.2893V42.2894H86.3846Z" fill="#003DA6"/>
<path fill-rule="evenodd" clip-rule="evenodd" d="M90.3132 44.6855C90.7047 44.63 91.0603 44.4276 91.3079 44.1193C91.5555 43.8111 91.6764 43.4201 91.6462 43.0259C91.6462 41.9316 90.8915 41.2988 89.5716 41.2988H87.8834V47.1491H89.0244V44.7971H89.1722L90.7515 47.1491H92.1544L90.3132 44.6855ZM89.0166 43.9906V42.2194H89.3667C90.0773 42.2194 90.4637 42.5176 90.4637 43.0881C90.4637 43.6586 90.0773 43.9906 89.3486 43.9906H89.0166Z" fill="#003DA6"/>
<path fill-rule="evenodd" clip-rule="evenodd" d="M97.4316 41.5277C97.002 41.2907 96.5193 41.1667 96.0287 41.1672C95.6229 41.1624 95.2201 41.238 94.8436 41.3896C94.4671 41.5412 94.1243 41.7658 93.8351 42.0505C93.5458 42.3352 93.3157 42.6743 93.1581 43.0484C93.0005 43.4224 92.9185 43.8239 92.9169 44.2298C92.9133 44.6344 92.991 45.0357 93.1452 45.4098C93.2995 45.7839 93.5272 46.1233 93.8149 46.4079C94.1026 46.6925 94.4445 46.9165 94.8203 47.0666C95.1961 47.2167 95.5982 47.29 96.0028 47.282C96.4994 47.282 96.9889 47.1647 97.4316 46.9397V45.5964C97.262 45.7963 97.051 45.957 96.8133 46.0676C96.5756 46.1781 96.3168 46.2359 96.0546 46.2369C94.9058 46.2369 94.0916 45.4045 94.0916 44.2194C94.0829 43.9615 94.1258 43.7045 94.2175 43.4634C94.3093 43.2222 94.4482 43.0018 94.6262 42.815C94.8041 42.6281 95.0175 42.4786 95.2538 42.3751C95.4902 42.2716 95.7448 42.2163 96.0028 42.2123C96.2739 42.2134 96.5418 42.2725 96.7882 42.3856C97.0347 42.4988 97.254 42.6634 97.4316 42.8683V41.5277Z" fill="#003DA6"/>
<path d="M100.027 41.2988H98.8864V47.1491H100.027V41.2988Z" fill="#003DA6"/>
<path fill-rule="evenodd" clip-rule="evenodd" d="M104.594 41.1666C104.186 41.1584 103.78 41.2317 103.4 41.3823C103.02 41.5328 102.674 41.7577 102.383 42.0436C102.091 42.3296 101.859 42.6708 101.701 43.0475C101.543 43.4241 101.461 43.8285 101.461 44.237C101.45 44.8576 101.624 45.4676 101.96 45.9892C102.297 46.5108 102.781 46.9205 103.351 47.1662C103.921 47.4118 104.551 47.4822 105.161 47.3685C105.772 47.2548 106.334 46.962 106.777 46.5275C107.221 46.093 107.525 45.5364 107.651 44.9286C107.777 44.3208 107.719 43.6893 107.485 43.1144C107.251 42.5395 106.851 42.0473 106.336 41.7005C105.821 41.3536 105.215 41.1678 104.594 41.1666ZM104.594 42.2039C104.994 42.1931 105.389 42.302 105.727 42.5166C106.065 42.7313 106.332 43.042 106.492 43.4089C106.653 43.7758 106.7 44.1823 106.628 44.5763C106.556 44.9703 106.369 45.3339 106.089 45.6206C105.809 45.9073 105.45 46.1041 105.058 46.1856C104.666 46.2672 104.259 46.2299 103.888 46.0786C103.517 45.9272 103.2 45.6686 102.977 45.3359C102.754 45.0032 102.635 44.6116 102.636 44.2111C102.633 43.9511 102.681 43.6931 102.778 43.4519C102.875 43.2106 103.018 42.9908 103.2 42.8051C103.382 42.6194 103.599 42.4714 103.838 42.3695C104.077 42.2677 104.334 42.2141 104.594 42.2117V42.2039Z" fill="#003DA6"/>
<path fill-rule="evenodd" clip-rule="evenodd" d="M111.601 47.1491H113.268C114.02 47.1908 114.76 46.9494 115.343 46.4723C115.674 46.1992 115.94 45.8566 116.123 45.469C116.307 45.0813 116.402 44.658 116.403 44.2291C116.403 42.4995 115.107 41.2988 113.263 41.2988H111.588L111.601 47.1491ZM112.742 46.1585V42.2894H113.048C113.784 42.2894 114.233 42.4217 114.604 42.764C114.804 42.9493 114.964 43.1743 115.073 43.4248C115.182 43.6753 115.238 43.9457 115.237 44.2188C115.24 44.4935 115.187 44.766 115.081 45.0194C114.975 45.2727 114.818 45.5016 114.619 45.6917C114.259 46.0184 113.795 46.1585 113.063 46.1585H112.742Z" fill="#003DA6"/>
<path fill-rule="evenodd" clip-rule="evenodd" d="M121.097 42.2894V41.2988H117.861V47.1491H121.097V46.1585H119.002V44.5792H121.019V43.5886H119.002V42.2894H121.097Z" fill="#003DA6"/>
<path fill-rule="evenodd" clip-rule="evenodd" d="M128.493 41.8515C128.021 41.4296 127.409 41.1984 126.776 41.2032C125.739 41.2032 124.961 41.9215 124.961 42.8784C124.961 43.6849 125.329 44.0972 126.4 44.4836C126.669 44.5705 126.929 44.6816 127.178 44.8155C127.283 44.8782 127.37 44.9671 127.43 45.0735C127.49 45.1799 127.521 45.3002 127.52 45.4223C127.52 45.5355 127.496 45.6473 127.45 45.7509C127.405 45.8545 127.339 45.9478 127.256 46.0249C127.173 46.1021 127.075 46.1616 126.969 46.1998C126.862 46.238 126.749 46.254 126.636 46.247C126.375 46.2512 126.119 46.1801 125.898 46.0421C125.676 45.904 125.5 45.7051 125.389 45.469L124.652 46.1795C124.86 46.5286 125.158 46.8158 125.514 47.0114C125.87 47.207 126.272 47.3039 126.678 47.292C127.863 47.292 128.695 46.5141 128.695 45.3705C128.695 44.4421 128.309 44.022 127.012 43.5552C126.328 43.2959 126.125 43.1351 126.125 42.8188C126.125 42.4505 126.486 42.1705 126.976 42.1705C127.155 42.1742 127.332 42.2186 127.492 42.3004C127.652 42.3821 127.791 42.4991 127.899 42.6424L128.493 41.8515Z" fill="#003DA6"/>
<path fill-rule="evenodd" clip-rule="evenodd" d="M133.508 45.9129L134.009 47.1499H135.227L132.772 41.1855H131.913L129.377 47.1499H130.588L131.107 45.9129H133.508ZM133.148 44.9924H131.475L132.326 42.8867L133.148 44.9924Z" fill="#003DA6"/>
<path fill-rule="evenodd" clip-rule="evenodd" d="M136.314 47.1495H137.452V43.1949L141.013 47.2636H141.804V41.2992H140.663V45.2383L137.102 41.167H136.314V47.1495Z" fill="#003DA6"/>
<path fill-rule="evenodd" clip-rule="evenodd" d="M145.372 47.1491V42.2894H146.687V41.2988H142.924V42.2894H144.231V47.1491H145.372Z" fill="#003DA6"/>
<path d="M148.959 41.2988H147.818V47.1491H148.959V41.2988Z" fill="#003DA6"/>
<path fill-rule="evenodd" clip-rule="evenodd" d="M154.155 45.9129L154.656 47.1499H155.875L153.419 41.1855H152.558L150.024 47.1499H151.235L151.754 45.9129H154.155ZM153.795 44.9924H152.13L152.981 42.8867L153.795 44.9924Z" fill="#003DA6"/>
<path fill-rule="evenodd" clip-rule="evenodd" d="M159.697 44.0199V45.0105H161.074C160.986 45.7547 160.371 46.2474 159.539 46.2474C159.28 46.2488 159.025 46.1976 158.787 46.0969C158.549 45.9963 158.334 45.8483 158.156 45.662C157.977 45.4757 157.838 45.2549 157.747 45.0132C157.656 44.7715 157.616 44.5138 157.628 44.2559C157.628 43.0889 158.442 42.2124 159.528 42.2124C159.84 42.2007 160.148 42.2758 160.419 42.4292C160.69 42.5826 160.913 42.8083 161.063 43.0812L162.064 42.5444C161.809 42.1105 161.441 41.7535 161 41.5112C160.559 41.2688 160.06 41.15 159.557 41.1674C159.146 41.1511 158.736 41.2197 158.353 41.3689C157.969 41.5181 157.621 41.7446 157.329 42.0343C157.037 42.3241 156.808 42.6709 156.656 43.0531C156.504 43.4353 156.432 43.8447 156.445 44.2559C156.445 46.0089 157.742 47.2821 159.515 47.2821C161.289 47.2821 162.368 46.0893 162.368 44.204V44.0199H159.697Z" fill="#003DA6"/>
<path fill-rule="evenodd" clip-rule="evenodd" d="M166.654 41.1666C166.246 41.1587 165.841 41.2322 165.461 41.383C165.082 41.5337 164.736 41.7586 164.445 42.0445C164.153 42.3304 163.922 42.6716 163.764 43.048C163.606 43.4245 163.524 43.8287 163.524 44.2369C163.513 44.8577 163.687 45.4677 164.023 45.9894C164.36 46.5111 164.844 46.9208 165.414 47.1664C165.985 47.4119 166.615 47.4822 167.225 47.3683C167.836 47.2543 168.398 46.9613 168.841 46.5266C169.285 46.0918 169.588 45.535 169.714 44.927C169.84 44.319 169.782 43.6874 169.547 43.1125C169.312 42.5377 168.912 42.0457 168.397 41.6991C167.882 41.3526 167.275 41.1672 166.654 41.1666ZM166.654 42.2039C167.055 42.1925 167.45 42.3009 167.788 42.5153C168.127 42.7296 168.393 43.0401 168.554 43.407C168.715 43.7738 168.763 44.1804 168.691 44.5746C168.62 44.9687 168.432 45.3326 168.153 45.6196C167.873 45.9065 167.515 46.1035 167.122 46.1853C166.73 46.2671 166.323 46.23 165.952 46.0787C165.581 45.9274 165.263 45.6689 165.04 45.3361C164.817 45.0034 164.698 44.6116 164.699 44.211C164.694 43.6867 164.896 43.1816 165.263 42.8067C165.63 42.4318 166.13 42.2178 166.654 42.2117V42.2039Z" fill="#003DA6"/>
<path fill-rule="evenodd" clip-rule="evenodd" d="M131.703 39.1108C128.672 37.936 126.242 36.9506 126.242 34.4767C126.242 31.9432 128.822 30.0813 131.519 30.0813C134.33 30.0813 136.394 31.3234 138.002 33.289L141.957 28.0067C139.32 25.372 133.985 23.6631 130.142 23.6631C122.858 23.6631 117.524 28.8858 117.524 35.3506C117.485 36.643 117.741 37.9272 118.273 39.1056L131.703 39.1108Z" fill="#39B54A"/>
<path fill-rule="evenodd" clip-rule="evenodd" d="M133.529 49.2061C134.292 50.0808 134.7 51.2094 134.673 52.3698C134.673 55.3701 132.551 58.0074 129.11 58.0074C125.495 58.0074 122.456 55.3182 121.31 52.3179L115.864 57.1283C118.846 61.6275 123.205 64.7289 129.17 64.7289C138.002 64.7289 143.393 59.1951 143.393 51.3869C143.396 50.6563 143.337 49.9268 143.217 49.2061H133.529Z" fill="#39B54A"/>
<path fill-rule="evenodd" clip-rule="evenodd" d="M47.6293 49.3044C48.5363 51.0786 49.8361 52.6225 51.4299 53.8186C53.0236 55.0147 54.8693 55.8313 56.8263 56.2064C58.7833 56.5815 60.8001 56.5052 62.7232 55.9832C64.6462 55.4612 66.4249 54.5073 67.9236 53.1942L69.5158 51.978L75.3091 58.2016L72.7807 60.4603C68.9156 63.2215 64.2768 64.6909 59.5269 64.6587C49.2059 64.6587 40.5239 58.0797 38.0033 49.1514L47.6293 49.3044Z" fill="#003DA6"/>
<path fill-rule="evenodd" clip-rule="evenodd" d="M37.7699 39.1101C39.9456 29.7409 48.8714 22.8897 59.5268 22.8897C65.1997 22.8816 70.6809 24.9422 74.9434 28.6855L69.3576 34.9325C66.8682 32.303 62.6646 30.4748 59.1949 30.4748C53.3991 30.4748 48.5394 33.9497 46.8383 39.1101H37.7699Z" fill="#003DA6"/>
<path fill-rule="evenodd" clip-rule="evenodd" d="M86.8851 49.6185C87.7924 51.3928 89.0925 52.9367 90.6865 54.1328C92.2805 55.3288 94.1263 56.1455 96.0835 56.5206C98.0408 56.8957 100.058 56.8193 101.981 56.2973C103.904 55.7753 105.683 54.8214 107.182 53.5083L108.774 52.2947L114.565 58.5183L112.026 60.7718C108.162 63.5334 103.524 65.0037 98.7749 64.9728C88.4514 64.9728 79.7694 58.3913 77.2514 49.4629L86.8851 49.6185Z" fill="#003DA6"/>
<path fill-rule="evenodd" clip-rule="evenodd" d="M77.1347 39.1104C79.4685 29.9357 88.2854 23.1182 98.7982 23.1182C104.474 23.1087 109.958 25.1693 114.223 28.914L108.637 35.161C106.147 32.5315 101.944 30.7033 98.4741 30.7033C92.769 30.7033 87.9716 34.0745 86.2005 39.1104H77.1347Z" fill="#003DA6"/>
</svg>
